<?xml version="1.0" encoding="utf-8"?>
<!-- Generator: Adobe Illustrator 23.0.3, SVG Export Plug-In . SVG Version: 6.00 Build 0)  -->
<svg version="1.1" xmlns="http://www.w3.org/2000/svg" xmlns:xlink="http://www.w3.org/1999/xlink" x="0px" y="0px"
	 viewBox="0 0 360 360" style="enable-background:new 0 0 360 360;" xml:space="preserve">
<g id="Layer_1">
</g>
<g id="Layer_2">
</g>
<g id="Layer_3">
	<g>
		<g>
			<path d="M155,215.2h-2.7v4.6h-1.5v-11.4h3.8c1.3,0,2.3,0.3,3,0.9c0.7,0.6,1,1.4,1,2.5c0,0.7-0.2,1.3-0.6,1.9s-0.9,0.9-1.6,1.2
				l2.7,4.8v0.1h-1.6L155,215.2z M152.3,214h2.3c0.7,0,1.3-0.2,1.8-0.6c0.4-0.4,0.7-0.9,0.7-1.5c0-0.7-0.2-1.2-0.6-1.6
				c-0.4-0.4-1-0.6-1.8-0.6h-2.3V214z"/>
			<path d="M163.8,220c-1.1,0-2.1-0.4-2.8-1.1s-1.1-1.8-1.1-3v-0.3c0-0.8,0.2-1.6,0.5-2.2s0.8-1.2,1.3-1.5s1.2-0.6,1.9-0.6
				c1.1,0,2,0.4,2.6,1.1s0.9,1.8,0.9,3.1v0.6h-5.7c0,0.8,0.3,1.5,0.7,2s1.1,0.8,1.8,0.8c0.5,0,0.9-0.1,1.3-0.3s0.7-0.5,0.9-0.8
				l0.9,0.7C166.3,219.5,165.2,220,163.8,220z M163.6,212.4c-0.6,0-1.1,0.2-1.5,0.6s-0.6,1-0.7,1.8h4.2v-0.1c0-0.7-0.2-1.3-0.6-1.7
				S164.2,212.4,163.6,212.4z"/>
			<path d="M172.2,218.8c0.5,0,1-0.2,1.4-0.5s0.6-0.7,0.6-1.2h1.4c0,0.5-0.2,0.9-0.5,1.4s-0.7,0.8-1.2,1s-1.1,0.4-1.6,0.4
				c-1.2,0-2.1-0.4-2.7-1.2s-1-1.8-1-3.2v-0.2c0-0.8,0.2-1.6,0.5-2.2s0.7-1.1,1.3-1.5s1.2-0.5,2-0.5c0.9,0,1.7,0.3,2.4,0.9
				s1,1.3,1,2.2h-1.4c0-0.5-0.2-1-0.6-1.3s-0.8-0.5-1.4-0.5c-0.7,0-1.3,0.3-1.7,0.8s-0.6,1.3-0.6,2.3v0.3c0,1,0.2,1.7,0.6,2.2
				S171.5,218.8,172.2,218.8z"/>
			<path d="M176.8,215.5c0-0.8,0.2-1.6,0.5-2.2c0.3-0.7,0.8-1.2,1.4-1.5c0.6-0.4,1.2-0.5,2-0.5c1.2,0,2.1,0.4,2.8,1.2
				s1.1,1.9,1.1,3.2v0.1c0,0.8-0.2,1.6-0.5,2.2c-0.3,0.7-0.8,1.2-1.4,1.5s-1.3,0.5-2,0.5c-1.1,0-2.1-0.4-2.8-1.2s-1.1-1.9-1.1-3.2
				V215.5z M178.3,215.7c0,0.9,0.2,1.7,0.7,2.3c0.4,0.6,1,0.9,1.7,0.9c0.7,0,1.3-0.3,1.8-0.9c0.4-0.6,0.6-1.4,0.6-2.4
				c0-0.9-0.2-1.7-0.7-2.3c-0.4-0.6-1-0.9-1.8-0.9c-0.7,0-1.3,0.3-1.7,0.9S178.3,214.7,178.3,215.7z"/>
			<path d="M186,215.6c0-1.3,0.3-2.4,0.9-3.1s1.4-1.2,2.4-1.2c1,0,1.8,0.4,2.4,1.1l0.1-0.9h1.3v8.2c0,1.1-0.3,2-1,2.6
				s-1.5,0.9-2.6,0.9c-0.6,0-1.2-0.1-1.8-0.4s-1-0.6-1.3-1.1l0.8-0.9c0.6,0.8,1.4,1.1,2.3,1.1c0.7,0,1.3-0.2,1.6-0.6s0.6-1,0.6-1.7
				V219c-0.6,0.7-1.4,1-2.4,1c-1,0-1.8-0.4-2.4-1.2S186,216.9,186,215.6z M187.4,215.7c0,1,0.2,1.7,0.6,2.2s0.9,0.8,1.6,0.8
				c0.9,0,1.6-0.4,2-1.2v-3.9c-0.4-0.8-1.1-1.2-2-1.2c-0.7,0-1.3,0.3-1.6,0.8S187.4,214.6,187.4,215.7z"/>
			<path d="M196.7,211.4l0,1.1c0.6-0.8,1.5-1.2,2.5-1.2c1.8,0,2.7,1,2.7,3v5.6h-1.4v-5.6c0-0.6-0.1-1.1-0.4-1.4s-0.7-0.4-1.3-0.4
				c-0.5,0-0.9,0.1-1.2,0.4c-0.4,0.2-0.6,0.6-0.8,1v6h-1.4v-8.5H196.7z"/>
			<path d="M204,209.2c0-0.2,0.1-0.4,0.2-0.6c0.1-0.2,0.4-0.2,0.6-0.2s0.5,0.1,0.6,0.2c0.1,0.2,0.2,0.4,0.2,0.6s-0.1,0.4-0.2,0.6
				c-0.1,0.2-0.4,0.2-0.6,0.2s-0.5-0.1-0.6-0.2C204.1,209.6,204,209.4,204,209.2z M205.6,219.8h-1.4v-8.5h1.4V219.8z"/>
			<path d="M209,218.7h4.9v1.2h-6.7v-1.1l4.7-6.2h-4.6v-1.2h6.4v1L209,218.7z"/>
			<path d="M218.8,220c-1.1,0-2.1-0.4-2.8-1.1s-1.1-1.8-1.1-3v-0.3c0-0.8,0.2-1.6,0.5-2.2s0.8-1.2,1.3-1.5s1.2-0.6,1.9-0.6
				c1.1,0,2,0.4,2.6,1.1s0.9,1.8,0.9,3.1v0.6h-5.7c0,0.8,0.3,1.5,0.7,2s1.1,0.8,1.8,0.8c0.5,0,0.9-0.1,1.3-0.3s0.7-0.5,0.9-0.8
				l0.9,0.7C221.3,219.5,220.2,220,218.8,220z M218.6,212.4c-0.6,0-1.1,0.2-1.5,0.6s-0.6,1-0.7,1.8h4.2v-0.1c0-0.7-0.2-1.3-0.6-1.7
				S219.2,212.4,218.6,212.4z"/>
			<path d="M227.4,216.8c0-0.5,0.2-1,0.5-1.5s0.9-1,1.7-1.6c-0.5-0.6-0.8-1.1-1-1.5s-0.3-0.7-0.3-1.1c0-0.9,0.3-1.5,0.8-2
				s1.2-0.7,2.1-0.7c0.8,0,1.4,0.2,1.9,0.7s0.8,1,0.8,1.7c0,0.5-0.1,0.9-0.3,1.3s-0.6,0.8-1.2,1.2l-0.8,0.6l2.5,3
				c0.4-0.7,0.5-1.4,0.5-2.3h1.3c0,1.3-0.3,2.4-1,3.3l1.6,1.9h-1.7L234,219c-0.4,0.3-0.8,0.6-1.4,0.8s-1,0.3-1.6,0.3
				c-1.1,0-2-0.3-2.7-0.9S227.4,217.8,227.4,216.8z M231.1,218.8c0.8,0,1.5-0.3,2.1-0.9l-2.8-3.3l-0.3,0.2c-0.9,0.6-1.3,1.3-1.3,2
				c0,0.6,0.2,1.1,0.6,1.5S230.4,218.8,231.1,218.8z M229.8,211c0,0.5,0.3,1.1,0.9,1.9l0.9-0.6c0.4-0.2,0.6-0.5,0.7-0.7
				s0.2-0.5,0.2-0.8c0-0.3-0.1-0.6-0.4-0.9s-0.6-0.3-1-0.3c-0.4,0-0.8,0.1-1,0.4S229.8,210.6,229.8,211z"/>
			<path d="M248.3,214.6h-4.9v4h5.7v1.2h-7.2v-11.4h7.1v1.2h-5.6v3.7h4.9V214.6z"/>
			<path d="M253.2,217.9l2.1-6.5h1.5l-3,8.5h-1.1l-3.1-8.5h1.5L253.2,217.9z"/>
			<path d="M263.1,219.8c-0.1-0.2-0.2-0.5-0.2-0.9c-0.7,0.7-1.5,1-2.4,1c-0.8,0-1.5-0.2-2.1-0.7c-0.5-0.5-0.8-1.1-0.8-1.8
				c0-0.9,0.3-1.6,1-2.1c0.7-0.5,1.6-0.7,2.8-0.7h1.4v-0.7c0-0.5-0.2-0.9-0.5-1.2c-0.3-0.3-0.7-0.4-1.3-0.4c-0.5,0-0.9,0.1-1.3,0.4
				c-0.3,0.3-0.5,0.6-0.5,0.9h-1.5c0-0.4,0.1-0.8,0.4-1.2c0.3-0.4,0.7-0.7,1.2-0.9c0.5-0.2,1.1-0.3,1.7-0.3c1,0,1.7,0.2,2.3,0.7
				c0.6,0.5,0.8,1.2,0.9,2v3.9c0,0.8,0.1,1.4,0.3,1.9v0.1H263.1z M260.7,218.7c0.5,0,0.9-0.1,1.3-0.4s0.7-0.5,0.9-0.9v-1.7h-1.1
				c-1.8,0-2.7,0.5-2.7,1.6c0,0.5,0.2,0.8,0.5,1.1C259.8,218.6,260.2,218.7,260.7,218.7z"/>
			<path d="M268,219.8h-1.4v-12h1.4V219.8z"/>
			<path d="M275.5,219c-0.6,0.7-1.4,1-2.5,1c-0.9,0-1.6-0.3-2.1-0.8s-0.7-1.3-0.7-2.3v-5.5h1.4v5.5c0,1.3,0.5,1.9,1.6,1.9
				c1.1,0,1.8-0.4,2.2-1.2v-6.1h1.4v8.5h-1.4L275.5,219z"/>
			<path d="M284.2,219.8c-0.1-0.2-0.2-0.5-0.2-0.9c-0.7,0.7-1.5,1-2.4,1c-0.8,0-1.5-0.2-2.1-0.7c-0.5-0.5-0.8-1.1-0.8-1.8
				c0-0.9,0.3-1.6,1-2.1c0.7-0.5,1.6-0.7,2.8-0.7h1.4v-0.7c0-0.5-0.2-0.9-0.5-1.2c-0.3-0.3-0.7-0.4-1.3-0.4c-0.5,0-0.9,0.1-1.3,0.4
				c-0.3,0.3-0.5,0.6-0.5,0.9h-1.5c0-0.4,0.1-0.8,0.4-1.2c0.3-0.4,0.7-0.7,1.2-0.9c0.5-0.2,1.1-0.3,1.7-0.3c1,0,1.7,0.2,2.3,0.7
				c0.6,0.5,0.8,1.2,0.9,2v3.9c0,0.8,0.1,1.4,0.3,1.9v0.1H284.2z M281.8,218.7c0.5,0,0.9-0.1,1.3-0.4s0.7-0.5,0.9-0.9v-1.7h-1.1
				c-1.8,0-2.7,0.5-2.7,1.6c0,0.5,0.2,0.8,0.5,1.1C280.9,218.6,281.3,218.7,281.8,218.7z"/>
			<path d="M289.6,209.3v2h1.6v1.1h-1.6v5.2c0,0.3,0.1,0.6,0.2,0.8c0.1,0.2,0.4,0.3,0.7,0.3c0.2,0,0.4,0,0.7-0.1v1.2
				c-0.4,0.1-0.8,0.2-1.1,0.2c-0.6,0-1.1-0.2-1.5-0.6s-0.5-0.9-0.5-1.7v-5.2h-1.5v-1.1h1.5v-2H289.6z"/>
			<path d="M296.1,220c-1.1,0-2.1-0.4-2.8-1.1s-1.1-1.8-1.1-3v-0.3c0-0.8,0.2-1.6,0.5-2.2s0.8-1.2,1.3-1.5s1.2-0.6,1.9-0.6
				c1.1,0,2,0.4,2.6,1.1s0.9,1.8,0.9,3.1v0.6h-5.7c0,0.8,0.3,1.5,0.7,2s1.1,0.8,1.8,0.8c0.5,0,0.9-0.1,1.3-0.3s0.7-0.5,0.9-0.8
				l0.9,0.7C298.6,219.5,297.5,220,296.1,220z M295.9,212.4c-0.6,0-1.1,0.2-1.5,0.6s-0.6,1-0.7,1.8h4.2v-0.1c0-0.7-0.2-1.3-0.6-1.7
				S296.5,212.4,295.9,212.4z"/>
			<path d="M154.1,234.6c-1.3-0.4-2.2-0.8-2.8-1.4s-0.9-1.2-0.9-2c0-0.9,0.4-1.6,1.1-2.2c0.7-0.6,1.6-0.9,2.8-0.9
				c0.8,0,1.5,0.2,2.1,0.5c0.6,0.3,1.1,0.7,1.4,1.2s0.5,1.1,0.5,1.7h-1.5c0-0.7-0.2-1.2-0.7-1.6s-1.1-0.6-1.9-0.6
				c-0.7,0-1.3,0.2-1.7,0.5s-0.6,0.8-0.6,1.4c0,0.5,0.2,0.9,0.6,1.2c0.4,0.3,1.1,0.6,2,0.9c0.9,0.3,1.7,0.6,2.2,0.9
				c0.5,0.3,0.9,0.7,1.2,1.1s0.4,0.9,0.4,1.5c0,0.9-0.4,1.7-1.1,2.2s-1.7,0.8-2.9,0.8c-0.8,0-1.5-0.1-2.2-0.4
				c-0.7-0.3-1.2-0.7-1.6-1.2s-0.6-1.1-0.6-1.8h1.5c0,0.7,0.3,1.2,0.8,1.6s1.2,0.6,2,0.6c0.8,0,1.4-0.2,1.8-0.5s0.6-0.8,0.6-1.3
				s-0.2-1-0.6-1.3S155.2,234.9,154.1,234.6z"/>
			<path d="M160.1,229c0-0.2,0.1-0.4,0.2-0.6s0.4-0.2,0.6-0.2s0.5,0.1,0.6,0.2s0.2,0.4,0.2,0.6s-0.1,0.4-0.2,0.6s-0.4,0.2-0.6,0.2
				s-0.5-0.1-0.6-0.2S160.1,229.2,160.1,229z M161.7,239.6h-1.4v-8.5h1.4V239.6z"/>
			<path d="M163.6,235.4c0-1.3,0.3-2.4,0.9-3.1s1.4-1.2,2.4-1.2c1,0,1.8,0.4,2.4,1.1l0.1-0.9h1.3v8.2c0,1.1-0.3,2-1,2.6
				s-1.5,0.9-2.6,0.9c-0.6,0-1.2-0.1-1.8-0.4s-1-0.6-1.3-1.1l0.8-0.9c0.6,0.8,1.4,1.1,2.3,1.1c0.7,0,1.3-0.2,1.6-0.6s0.6-1,0.6-1.7
				v-0.7c-0.6,0.7-1.4,1-2.4,1c-1,0-1.8-0.4-2.4-1.2S163.6,236.7,163.6,235.4z M165,235.5c0,1,0.2,1.7,0.6,2.2s0.9,0.8,1.6,0.8
				c0.9,0,1.6-0.4,2-1.2v-3.9c-0.4-0.8-1.1-1.2-2-1.2c-0.7,0-1.3,0.3-1.6,0.8S165,234.4,165,235.5z"/>
			<path d="M174.3,231.2l0,1.1c0.6-0.8,1.5-1.2,2.5-1.2c1.8,0,2.7,1,2.7,3v5.6h-1.4v-5.6c0-0.6-0.1-1.1-0.4-1.4s-0.7-0.4-1.3-0.4
				c-0.5,0-0.9,0.1-1.2,0.4c-0.4,0.2-0.6,0.6-0.8,1v6h-1.4v-8.5H174.3z"/>
			<path d="M186.5,237.4c0-0.4-0.1-0.7-0.4-0.9s-0.8-0.4-1.5-0.6s-1.3-0.3-1.7-0.6s-0.7-0.5-1-0.8s-0.3-0.7-0.3-1.1
				c0-0.7,0.3-1.3,0.9-1.8s1.3-0.7,2.2-0.7c1,0,1.7,0.2,2.3,0.7s0.9,1.1,0.9,1.9h-1.5c0-0.4-0.2-0.7-0.5-1s-0.8-0.4-1.3-0.4
				c-0.5,0-0.9,0.1-1.2,0.3s-0.4,0.5-0.4,0.9c0,0.3,0.1,0.6,0.4,0.8s0.8,0.3,1.5,0.5s1.3,0.4,1.8,0.6s0.8,0.5,1,0.8s0.3,0.7,0.3,1.2
				c0,0.8-0.3,1.4-0.9,1.8s-1.4,0.7-2.4,0.7c-0.7,0-1.3-0.1-1.8-0.4s-0.9-0.6-1.2-1s-0.4-0.9-0.4-1.4h1.4c0,0.5,0.2,0.9,0.6,1.2
				s0.8,0.4,1.4,0.4c0.5,0,1-0.1,1.3-0.3S186.5,237.8,186.5,237.4z"/>
			<path d="M195.8,229.1v2h1.6v1.1h-1.6v5.2c0,0.3,0.1,0.6,0.2,0.8c0.1,0.2,0.4,0.3,0.7,0.3c0.2,0,0.4,0,0.7-0.1v1.2
				c-0.4,0.1-0.8,0.2-1.1,0.2c-0.6,0-1.1-0.2-1.5-0.6s-0.5-0.9-0.5-1.7v-5.2h-1.5v-1.1h1.5v-2H195.8z"/>
			<path d="M198.3,235.3c0-0.8,0.2-1.6,0.5-2.2s0.8-1.2,1.4-1.5s1.2-0.5,2-0.5c1.2,0,2.1,0.4,2.8,1.2s1.1,1.9,1.1,3.2v0.1
				c0,0.8-0.2,1.6-0.5,2.2s-0.8,1.2-1.4,1.5s-1.3,0.5-2,0.5c-1.1,0-2.1-0.4-2.8-1.2s-1.1-1.9-1.1-3.2V235.3z M199.8,235.5
				c0,0.9,0.2,1.7,0.7,2.3s1,0.9,1.7,0.9c0.7,0,1.3-0.3,1.8-0.9s0.6-1.4,0.6-2.4c0-0.9-0.2-1.7-0.7-2.3s-1-0.9-1.8-0.9
				c-0.7,0-1.3,0.3-1.7,0.9S199.8,234.5,199.8,235.5z"/>
			<path d="M220,228.3v7.7c0,1.1-0.3,2-1,2.6s-1.6,1.1-2.7,1.1l-0.4,0c-1.2,0-2.2-0.3-3-1s-1.1-1.6-1.1-2.8v-7.8h1.5v7.7
				c0,0.8,0.2,1.5,0.7,1.9s1.1,0.7,1.9,0.7c0.8,0,1.5-0.2,1.9-0.7s0.7-1.1,0.7-1.9v-7.7H220z"/>
			<path d="M223.6,231.2l0,1.1c0.6-0.8,1.5-1.2,2.5-1.2c1.8,0,2.7,1,2.7,3v5.6h-1.4v-5.6c0-0.6-0.1-1.1-0.4-1.4s-0.7-0.4-1.3-0.4
				c-0.5,0-0.9,0.1-1.2,0.4c-0.4,0.2-0.6,0.6-0.8,1v6h-1.4v-8.5H223.6z"/>
			<path d="M234.5,238.6c0.5,0,1-0.2,1.4-0.5s0.6-0.7,0.6-1.2h1.4c0,0.5-0.2,0.9-0.5,1.4s-0.7,0.8-1.2,1s-1.1,0.4-1.6,0.4
				c-1.2,0-2.1-0.4-2.7-1.2s-1-1.8-1-3.2v-0.2c0-0.8,0.2-1.6,0.5-2.2s0.7-1.1,1.3-1.5s1.2-0.5,2-0.5c0.9,0,1.7,0.3,2.4,0.9
				s1,1.3,1,2.2h-1.4c0-0.5-0.2-1-0.6-1.3s-0.8-0.5-1.4-0.5c-0.7,0-1.3,0.3-1.7,0.8s-0.6,1.3-0.6,2.3v0.3c0,1,0.2,1.7,0.6,2.2
				S233.7,238.6,234.5,238.6z"/>
			<path d="M239.1,235.3c0-0.8,0.2-1.6,0.5-2.2c0.3-0.7,0.8-1.2,1.4-1.5c0.6-0.4,1.2-0.5,2-0.5c1.2,0,2.1,0.4,2.8,1.2
				s1.1,1.9,1.1,3.2v0.1c0,0.8-0.2,1.6-0.5,2.2c-0.3,0.7-0.8,1.2-1.4,1.5s-1.3,0.5-2,0.5c-1.1,0-2.1-0.4-2.8-1.2s-1.1-1.9-1.1-3.2
				V235.3z M240.5,235.5c0,0.9,0.2,1.7,0.7,2.3c0.4,0.6,1,0.9,1.7,0.9c0.7,0,1.3-0.3,1.8-0.9c0.4-0.6,0.6-1.4,0.6-2.4
				c0-0.9-0.2-1.7-0.7-2.3c-0.4-0.6-1-0.9-1.8-0.9c-0.7,0-1.3,0.3-1.7,0.9S240.5,234.5,240.5,235.5z"/>
			<path d="M251.1,237.7l2.1-6.5h1.5l-3,8.5h-1.1l-3.1-8.5h1.5L251.1,237.7z"/>
			<path d="M259.2,239.8c-1.1,0-2.1-0.4-2.8-1.1s-1.1-1.8-1.1-3v-0.3c0-0.8,0.2-1.6,0.5-2.2s0.8-1.2,1.3-1.5
				c0.6-0.4,1.2-0.6,1.9-0.6c1.1,0,2,0.4,2.6,1.1s0.9,1.8,0.9,3.1v0.6h-5.7c0,0.8,0.3,1.5,0.7,2c0.5,0.5,1.1,0.8,1.8,0.8
				c0.5,0,0.9-0.1,1.3-0.3c0.4-0.2,0.7-0.5,0.9-0.8l0.9,0.7C261.7,239.3,260.6,239.8,259.2,239.8z M259,232.2
				c-0.6,0-1.1,0.2-1.5,0.6c-0.4,0.4-0.6,1-0.7,1.8h4.2v-0.1c0-0.7-0.2-1.3-0.6-1.7C260.1,232.4,259.6,232.2,259,232.2z"/>
			<path d="M268.3,232.5c-0.2,0-0.5-0.1-0.7-0.1c-0.9,0-1.6,0.4-1.9,1.2v6h-1.4v-8.5h1.4l0,1c0.5-0.8,1.1-1.1,2-1.1
				c0.3,0,0.5,0,0.6,0.1V232.5z"/>
			<path d="M152.3,258.2h5.4v1.2h-6.9v-11.4h1.5V258.2z"/>
			<path d="M164.5,259.4c-0.1-0.2-0.2-0.5-0.2-0.9c-0.7,0.7-1.5,1-2.4,1c-0.8,0-1.5-0.2-2.1-0.7c-0.5-0.5-0.8-1.1-0.8-1.8
				c0-0.9,0.3-1.6,1-2.1c0.7-0.5,1.6-0.7,2.8-0.7h1.4v-0.7c0-0.5-0.2-0.9-0.5-1.2c-0.3-0.3-0.7-0.4-1.3-0.4c-0.5,0-0.9,0.1-1.3,0.4
				c-0.3,0.3-0.5,0.6-0.5,0.9h-1.5c0-0.4,0.1-0.8,0.4-1.2c0.3-0.4,0.7-0.7,1.2-0.9c0.5-0.2,1.1-0.3,1.7-0.3c1,0,1.7,0.2,2.3,0.7
				c0.6,0.5,0.8,1.2,0.9,2v3.9c0,0.8,0.1,1.4,0.3,1.9v0.1H164.5z M162.1,258.3c0.5,0,0.9-0.1,1.3-0.4s0.7-0.5,0.9-0.9v-1.7h-1.1
				c-1.8,0-2.7,0.5-2.7,1.6c0,0.5,0.2,0.8,0.5,1.1C161.2,258.2,161.6,258.3,162.1,258.3z"/>
			<path d="M175.1,255.3c0,1.3-0.3,2.3-0.9,3.1s-1.4,1.2-2.4,1.2c-1.1,0-1.9-0.4-2.5-1.1l-0.1,1h-1.3v-12h1.4v4.5
				c0.6-0.7,1.4-1.1,2.4-1.1c1,0,1.8,0.4,2.4,1.2s0.9,1.8,0.9,3.2V255.3z M173.6,255.2c0-1-0.2-1.7-0.6-2.3
				c-0.4-0.5-0.9-0.8-1.6-0.8c-1,0-1.6,0.4-2.1,1.3v3.7c0.4,0.9,1.1,1.3,2.1,1.3c0.7,0,1.2-0.3,1.6-0.8
				C173.4,257,173.6,256.2,173.6,255.2z"/>
			<path d="M176.5,255.1c0-0.8,0.2-1.6,0.5-2.2c0.3-0.7,0.8-1.2,1.4-1.5c0.6-0.4,1.2-0.5,2-0.5c1.2,0,2.1,0.4,2.8,1.2
				s1.1,1.9,1.1,3.2v0.1c0,0.8-0.2,1.6-0.5,2.2c-0.3,0.7-0.8,1.2-1.4,1.5s-1.3,0.5-2,0.5c-1.1,0-2.1-0.4-2.8-1.2s-1.1-1.9-1.1-3.2
				V255.1z M178,255.3c0,0.9,0.2,1.7,0.7,2.3c0.4,0.6,1,0.9,1.7,0.9c0.7,0,1.3-0.3,1.8-0.9c0.4-0.6,0.6-1.4,0.6-2.4
				c0-0.9-0.2-1.7-0.7-2.3c-0.4-0.6-1-0.9-1.8-0.9c-0.7,0-1.3,0.3-1.7,0.9S178,254.3,178,255.3z"/>
			<path d="M190.1,252.3c-0.2,0-0.5-0.1-0.7-0.1c-0.9,0-1.6,0.4-1.9,1.2v6H186V251h1.4l0,1c0.5-0.8,1.1-1.1,2-1.1
				c0.3,0,0.5,0,0.6,0.1V252.3z"/>
			<path d="M203.5,249.3h-3.7v10.1h-1.5v-10.1h-3.6v-1.2h8.8V249.3z"/>
			<path d="M207.7,252.3c-0.2,0-0.5-0.1-0.7-0.1c-0.9,0-1.6,0.4-1.9,1.2v6h-1.4V251h1.4l0,1c0.5-0.8,1.1-1.1,2-1.1
				c0.3,0,0.5,0,0.6,0.1V252.3z"/>
			<path d="M214.2,259.4c-0.1-0.2-0.2-0.5-0.2-0.9c-0.7,0.7-1.5,1-2.4,1c-0.8,0-1.5-0.2-2.1-0.7s-0.8-1.1-0.8-1.8
				c0-0.9,0.3-1.6,1-2.1s1.6-0.7,2.8-0.7h1.4v-0.7c0-0.5-0.2-0.9-0.5-1.2s-0.7-0.4-1.3-0.4c-0.5,0-0.9,0.1-1.3,0.4s-0.5,0.6-0.5,0.9
				h-1.5c0-0.4,0.1-0.8,0.4-1.2s0.7-0.7,1.2-0.9s1.1-0.3,1.7-0.3c1,0,1.7,0.2,2.3,0.7s0.8,1.2,0.9,2v3.9c0,0.8,0.1,1.4,0.3,1.9v0.1
				H214.2z M211.8,258.3c0.5,0,0.9-0.1,1.3-0.4s0.7-0.5,0.9-0.9v-1.7h-1.1c-1.8,0-2.7,0.5-2.7,1.6c0,0.5,0.2,0.8,0.5,1.1
				S211.3,258.3,211.8,258.3z"/>
			<path d="M218.2,259.4v-7.3h-1.3V251h1.3v-0.9c0-0.9,0.2-1.6,0.7-2.1s1.2-0.7,2.1-0.7c0.3,0,0.7,0,1,0.1l-0.1,1.2
				c-0.2,0-0.5-0.1-0.8-0.1c-0.5,0-0.8,0.1-1.1,0.4s-0.4,0.7-0.4,1.2v0.9h1.8v1.1h-1.8v7.3H218.2z"/>
			<path d="M223.9,259.4v-7.3h-1.3V251h1.3v-0.9c0-0.9,0.2-1.6,0.7-2.1s1.2-0.7,2.1-0.7c0.3,0,0.7,0,1,0.1l-0.1,1.2
				c-0.2,0-0.5-0.1-0.8-0.1c-0.5,0-0.8,0.1-1.1,0.4c-0.3,0.3-0.4,0.7-0.4,1.2v0.9h1.8v1.1h-1.8v7.3H223.9z"/>
			<path d="M228.9,248.8c0-0.2,0.1-0.4,0.2-0.6s0.4-0.2,0.6-0.2s0.5,0.1,0.6,0.2s0.2,0.4,0.2,0.6s-0.1,0.4-0.2,0.6s-0.4,0.2-0.6,0.2
				s-0.5-0.1-0.6-0.2S228.9,249,228.9,248.8z M230.5,259.4H229V251h1.4V259.4z"/>
			<path d="M236.1,258.4c0.5,0,1-0.2,1.4-0.5s0.6-0.7,0.6-1.2h1.4c0,0.5-0.2,0.9-0.5,1.4s-0.7,0.8-1.2,1s-1.1,0.4-1.6,0.4
				c-1.2,0-2.1-0.4-2.7-1.2s-1-1.8-1-3.2v-0.2c0-0.8,0.2-1.6,0.5-2.2s0.7-1.1,1.3-1.5s1.2-0.5,2-0.5c0.9,0,1.7,0.3,2.4,0.9
				s1,1.3,1,2.2H238c0-0.5-0.2-1-0.6-1.3s-0.8-0.5-1.4-0.5c-0.7,0-1.3,0.3-1.7,0.8s-0.6,1.3-0.6,2.3v0.3c0,1,0.2,1.7,0.6,2.2
				S235.3,258.4,236.1,258.4z"/>
			<path d="M243.4,255.5l-0.9,0.9v3h-1.4v-12h1.4v7.3l0.8-0.9l2.6-2.8h1.8l-3.3,3.5l3.7,4.9h-1.7L243.4,255.5z"/>
			<path d="M249.3,248.8c0-0.2,0.1-0.4,0.2-0.6c0.1-0.2,0.4-0.2,0.6-0.2s0.5,0.1,0.6,0.2c0.1,0.2,0.2,0.4,0.2,0.6s-0.1,0.4-0.2,0.6
				c-0.1,0.2-0.4,0.2-0.6,0.2s-0.5-0.1-0.6-0.2C249.3,249.2,249.3,249,249.3,248.8z M250.8,259.4h-1.4V251h1.4V259.4z"/>
			<path d="M254.4,251l0,1.1c0.6-0.8,1.5-1.2,2.5-1.2c1.8,0,2.7,1,2.7,3v5.6h-1.4v-5.6c0-0.6-0.1-1.1-0.4-1.4s-0.7-0.4-1.3-0.4
				c-0.5,0-0.9,0.1-1.2,0.4s-0.6,0.6-0.8,1v6h-1.4V251H254.4z"/>
			<path d="M261.5,255.2c0-1.3,0.3-2.4,0.9-3.1s1.4-1.2,2.4-1.2c1,0,1.8,0.4,2.4,1.1l0.1-0.9h1.3v8.2c0,1.1-0.3,2-1,2.6
				s-1.5,0.9-2.6,0.9c-0.6,0-1.2-0.1-1.8-0.4s-1-0.6-1.3-1.1l0.8-0.9c0.6,0.8,1.4,1.1,2.3,1.1c0.7,0,1.3-0.2,1.6-0.6s0.6-1,0.6-1.7
				v-0.7c-0.6,0.7-1.4,1-2.4,1c-1,0-1.8-0.4-2.4-1.2S261.5,256.5,261.5,255.2z M263,255.3c0,1,0.2,1.7,0.6,2.2s0.9,0.8,1.6,0.8
				c0.9,0,1.6-0.4,2-1.2v-3.9c-0.4-0.8-1.1-1.2-2-1.2c-0.7,0-1.3,0.3-1.6,0.8S263,254.2,263,255.3z"/>
		</g>
		<g>
			<path d="M97.7,185.8c-1-1-1.5-2.3-1.5-4v-45h35.4v6h-28.5v15.7h26.4v5.9h-26.4v16.8h28.5v6h-29.9
				C100,187.2,98.7,186.7,97.7,185.8z"/>
			<path d="M140.8,183.6c-2.8-2.8-4.2-6.5-4.2-11.2h6.7c0,2.8,0.8,5.1,2.4,6.8c1.6,1.7,3.7,2.5,6.4,2.5h8c2.6,0,4.8-0.6,6.3-1.7
				c1.6-1.1,2.4-2.6,2.4-4.5v-3.9c0-1.5-0.6-2.7-1.7-3.7c-1.1-1-2.7-1.7-4.8-2l-13.1-2.2c-3.8-0.6-6.8-1.9-8.9-4
				c-2.1-2-3.1-4.5-3.1-7.6v-4c0-3.6,1.4-6.5,4.1-8.7c2.8-2.2,6.4-3.3,10.9-3.3h8.1c2.8,0,5.3,0.6,7.5,1.8c2.2,1.2,3.9,2.8,5.1,5
				c1.2,2.1,1.8,4.6,1.8,7.4h-6.8c0-2.4-0.7-4.3-2.1-5.8c-1.4-1.5-3.2-2.2-5.5-2.2h-8.1c-2.4,0-4.4,0.5-5.9,1.6s-2.3,2.6-2.3,4.4
				v3.2c0,1.5,0.5,2.8,1.6,3.8s2.6,1.7,4.6,2.1l13,2.2c4,0.7,7,2,9.2,3.9c2.1,1.9,3.2,4.4,3.2,7.3v4.7c0,3.6-1.4,6.6-4.2,8.8
				c-2.8,2.2-6.5,3.3-11.2,3.3H152C147.3,187.8,143.6,186.4,140.8,183.6z"/>
			<path d="M189.9,185.6c-2.5-1.4-4.4-3.4-5.7-6c-1.3-2.6-2-5.6-2-8.9v-33.9h6.8v33.9c0,3.3,0.9,5.9,2.6,7.9c1.8,2,4,3,6.9,3h7.7
				c2.8,0,5.1-1,6.9-3c1.8-2,2.6-4.7,2.6-7.9v-33.9h6.8v33.9c0,3.4-0.7,6.3-2,8.9c-1.3,2.6-3.3,4.6-5.7,6c-2.5,1.4-5.3,2.1-8.6,2.1
				h-7.7C195.3,187.8,192.4,187.1,189.9,185.6z"/>
			<path d="M232.4,185.8c-1-1-1.5-2.3-1.5-3.9v-45.1h6.8v44.4h27.4v6h-28.7C234.8,187.2,233.4,186.7,232.4,185.8z"/>
			<path d="M276.5,142.8h-16v-6h38.8v6h-16v44.4h-6.8V142.8z"/>
			<g>
				<path d="M86.5,173.9c-1.4-4.5-3.5-7.5-6.3-9.2v-0.1c2.7-0.9,4.8-2.3,6.4-4.2c1.6-1.9,2.3-4.1,2.3-6.6v-5.2
					c0-3.6-1.2-6.4-3.6-8.6c-2.4-2.2-5.5-3.3-9.4-3.3H50.6v6h6.8h7.9h10.4c1.9,0,3.4,0.5,4.5,1.6c1.2,1.1,1.7,2.4,1.7,4.2v5.3
					c0,2.1-0.7,3.8-2.2,5.1c-1.5,1.3-3.4,1.9-5.8,1.9h-8.7h-7.9h-6.8v26.3h6.8V167h13.8c1.9,0,3.5,0.6,5,1.9
					c1.5,1.3,2.5,3.1,3.2,5.3l3.9,13h7.1L86.5,173.9z"/>
				<polygon points="50.6,152.2 50.6,136.8 66,136.8 				"/>
			</g>
		</g>
	</g>
</g>
</svg>
