<?xml version="1.0" encoding="utf-8"?>
<!-- Generator: Adobe Illustrator 23.0.3, SVG Export Plug-In . SVG Version: 6.00 Build 0)  -->
<svg version="1.1" xmlns="http://www.w3.org/2000/svg" xmlns:xlink="http://www.w3.org/1999/xlink" x="0px" y="0px"
	 viewBox="0 0 360 360" style="enable-background:new 0 0 360 360;" xml:space="preserve">
<style type="text/css">
	.st0{fill:#C6D5E3;}
</style>
<g id="Layer_1">
</g>
<g id="Layer_2">
</g>
<g id="Layer_3">
	<g>
		<path class="st0" d="M102.7,203.8c-1-1-1.5-2.3-1.5-4v-45h35.4v6h-28.5v15.7h26.4v5.9h-26.4v16.8h28.5v6h-29.9
			C105,205.2,103.7,204.7,102.7,203.8z"/>
		<path class="st0" d="M145.8,201.6c-2.8-2.8-4.2-6.5-4.2-11.2h6.7c0,2.8,0.8,5.1,2.4,6.8c1.6,1.7,3.7,2.5,6.4,2.5h8
			c2.6,0,4.8-0.6,6.3-1.7c1.6-1.1,2.4-2.6,2.4-4.5v-3.9c0-1.5-0.6-2.7-1.7-3.7c-1.1-1-2.7-1.7-4.8-2l-13.1-2.2
			c-3.8-0.6-6.8-1.9-8.9-4c-2.1-2-3.1-4.5-3.1-7.6v-4c0-3.6,1.4-6.5,4.1-8.7c2.8-2.2,6.4-3.3,10.9-3.3h8.1c2.8,0,5.3,0.6,7.5,1.8
			c2.2,1.2,3.9,2.8,5.1,5c1.2,2.1,1.8,4.6,1.8,7.4h-6.8c0-2.4-0.7-4.3-2.1-5.8c-1.4-1.5-3.2-2.2-5.5-2.2h-8.1
			c-2.4,0-4.4,0.5-5.9,1.6s-2.3,2.6-2.3,4.4v3.2c0,1.5,0.5,2.8,1.6,3.8s2.6,1.7,4.6,2.1l13,2.2c4,0.7,7,2,9.2,3.9
			c2.1,1.9,3.2,4.4,3.2,7.3v4.7c0,3.6-1.4,6.6-4.2,8.8c-2.8,2.2-6.5,3.3-11.2,3.3H157C152.3,205.8,148.6,204.4,145.8,201.6z"/>
		<path class="st0" d="M194.9,203.7c-2.5-1.4-4.4-3.4-5.7-6c-1.3-2.6-2-5.6-2-8.9v-33.9h6.8v33.9c0,3.3,0.9,5.9,2.6,7.9
			c1.8,2,4,3,6.9,3h7.7c2.8,0,5.1-1,6.9-3c1.8-2,2.6-4.7,2.6-7.9v-33.9h6.8v33.9c0,3.4-0.7,6.3-2,8.9c-1.3,2.6-3.3,4.6-5.7,6
			c-2.5,1.4-5.3,2.1-8.6,2.1h-7.7C200.3,205.8,197.4,205.1,194.9,203.7z"/>
		<path class="st0" d="M237.4,203.8c-1-1-1.5-2.3-1.5-3.9v-45.1h6.8v44.4h27.4v6h-28.7C239.8,205.2,238.4,204.7,237.4,203.8z"/>
		<path class="st0" d="M281.5,160.8h-16v-6h38.8v6h-16v44.4h-6.8V160.8z"/>
		<g>
			<path class="st0" d="M91.5,192c-1.4-4.5-3.5-7.5-6.3-9.2v-0.1c2.7-0.9,4.8-2.3,6.4-4.2c1.6-1.9,2.3-4.1,2.3-6.6v-5.2
				c0-3.6-1.2-6.4-3.6-8.6c-2.4-2.2-5.5-3.3-9.4-3.3H55.6v6h6.8h7.9h10.4c1.9,0,3.4,0.5,4.5,1.6c1.2,1.1,1.7,2.4,1.7,4.2v5.3
				c0,2.1-0.7,3.8-2.2,5.1c-1.5,1.3-3.4,1.9-5.8,1.9h-8.7h-7.9h-6.8v26.3h6.8V185h13.8c1.9,0,3.5,0.6,5,1.9c1.5,1.3,2.5,3.1,3.2,5.3
				l3.9,13h7.1L91.5,192z"/>
			<polygon class="st0" points="55.6,170.2 55.6,154.8 71,154.8 			"/>
		</g>
	</g>
</g>
</svg>
